Coordinates
version=1
nRows=17
nColumns=36
inDegrees=yes

Units are S.I. units (second, meters, Newtons, ...)
If the header above contains a line with 'inDegrees', this indicates whether rotational values are in degrees (yes) or radians (no).

endheader
time	pelvis_tilt	pelvis_list	pelvis_rotation	pelvis_tx	pelvis_ty	pelvis_tz	hip_flexion_r	hip_adduction_r	hip_rotation_r	knee_angle_r	knee_angle_r_beta	ankle_angle_r	subtalar_angle_r	mtp_angle_r	hip_flexion_l	hip_adduction_l	hip_rotation_l	knee_angle_l	knee_angle_l_beta	ankle_angle_l	subtalar_angle_l	mtp_angle_l	lumbar_extension	lumbar_bending	lumbar_rotation	arm_flex_r	arm_add_r	arm_rot_r	elbow_flex_r	pro_sup_r	arm_flex_l	arm_add_l	arm_rot_l	elbow_flex_l	pro_sup_l
      1.85000000	     24.66039192	     -2.63568021	      6.74201357	      1.61466664	      1.00218504	     -0.08792861	      1.80238726	     -1.33293796	      1.24850346	      4.44342651	      0.07755242	      2.49660355	     12.87091637	     -7.49999987	    -22.27663082	     -1.08378746	     -1.37189361	     12.49042257	      0.21799900	     29.32260645	      5.45063142	     -7.49999987	    -38.94741814	      2.93885812	      0.45301114	     36.79485768	     -2.86491756	     60.92479644	     97.32461785	     86.26032571	     37.44622959	     -7.43949920	     64.64461420	    106.49950822	     88.89070874
      1.86666670	     24.53862125	     -3.32509487	      6.92682440	      1.61928761	      1.00203227	     -0.08695654	      1.56897915	     -0.59158209	      1.46436864	      4.81466322	      0.08403173	      2.80543756	     12.27623908	     -7.49999987	    -22.60558859	     -1.73918761	     -1.29234893	     11.77438546	      0.20550179	     29.13819047	      5.40738494	     -7.49999987	    -38.28964317	      3.75999994	      0.57043118	     36.37431096	     -2.92135017	     61.24999932	     97.32119701	     85.02395658	     36.71166046	     -7.30024893	     64.51836144	    106.11258839	     87.58264548
      1.88333330	     24.36292121	     -3.96764744	      6.99794070	      1.61980655	      1.00162400	     -0.08759680	      1.53071649	      0.07692831	      1.91343889	      5.33292633	      0.09307712	      3.10574462	     11.65062256	     -7.49999987	    -22.74562761	     -2.32308985	     -1.45494962	     11.24426792	      0.19624950	     29.03230726	      5.64313921	     -7.49999987	    -37.70070068	      4.48913552	      0.44735349	     36.21385893	     -2.85132699	     61.96336112	     97.10537427	     84.87246868	     35.88267065	     -7.34287426	     64.05549883	    106.11653444	     87.49122201
      1.90000000	     24.16728280	     -4.48792373	      7.19516901	      1.62022651	      1.00113423	     -0.08873592	      1.47306026	      0.61351232	      2.15546372	      5.84767169	      0.10206112	      3.50760605	     11.17414940	     -7.49999987	    -22.77444693	     -2.81002404	     -1.28229869	     10.85019722	      0.18937167	     28.95934540	      5.60172870	     -7.49999987	    -37.17761161	      5.07688453	      0.41896336	     35.72113726	     -2.93506245	     61.87395048	     97.41463255	     86.41168132	     35.45869472	     -7.26882086	     63.89780572	    106.04489951	     89.16680942
      1.91666670	     24.04474734	     -4.89145686	      7.45626118	      1.62060963	      1.00094561	     -0.08949177	      1.31704147	      1.02425912	      2.26378392	      6.20806031	      0.10835109	      3.98824496	     10.86953347	     -7.49999987	    -22.81202884	     -3.20627670	     -1.06590898	     10.54222717	      0.18399657	     28.92108436	      5.57505709	     -7.49999987	    -36.78635658	      5.60294255	      0.35392834	     35.60535754	     -2.87494244	     62.02473534	     97.38910717	     83.03316125	     35.25886311	     -7.15222906	     64.14326257	    105.90591684	     85.45093177
      1.93333330	     23.85642940	     -5.28397595	      7.53400455	      1.62116188	      1.00029178	     -0.09026705	      1.12496339	      1.45794330	      2.82456575	      6.49925050	      0.11343332	      4.40769113	     10.20200002	     -7.49999987	    -22.82638502	     -3.51799717	     -1.02117991	     10.20049786	      0.17803227	     28.83223438	      5.52441261	     -7.49999987	    -36.33165853	      6.03511564	      0.32724427	     35.31069045	     -2.79800596	     61.70411843	     97.28434541	     86.67008370	     34.71451754	     -7.23777981	     63.74710189	    106.14742520	     88.98311994
      1.95000000	     23.73079419	     -5.61074307	      7.74541999	      1.62145112	      0.99781449	     -0.09111982	      0.87218284	      1.83703586	      3.00917027	      6.86929691	      0.11989185	      4.83065871	      9.88054754	     -7.49999987	    -22.81182324	     -3.81989952	     -0.82322559	      9.95831564	      0.17380540	     28.85575569	      5.48669195	     -7.49999987	    -35.89946991	      6.46850057	      0.27683476	     35.14634091	     -2.80703741	     61.73797556	     97.51535425	     86.65770572	     34.37339664	     -7.12160918	     63.82420927	    106.25853934	     88.97484885
      1.96666670	     23.57242192	     -5.87303103	      7.86439102	      1.62182932	      0.99751448	     -0.09184195	      0.70273346	      2.17147547	      3.47268653	      7.15054690	      0.12480059	      4.99420037	      9.19303416	     -7.49999987	    -22.71778171	     -4.02203671	     -0.70038441	      9.78513371	      0.17078280	     28.86760607	      5.34740611	     -7.49999987	    -35.63599470	      6.76551664	      0.25421470	     35.11848892	     -2.83142368	     61.85291894	     97.88943948	     87.23910264	     33.91706852	     -7.11359811	     63.38929481	    106.53134709	     89.62247705
      1.98333330	     23.49377797	     -6.13411723	      8.03319382	      1.62574412	      0.99770536	     -0.09506905	      0.29020800	      2.47847022	      3.70235237	      7.32803265	      0.12789830	      5.35137330	      8.75355234	     -7.49999987	    -22.79028630	     -4.23501535	     -0.45028361	      9.57335409	      0.16708655	     28.84570154	      5.24120261	     -7.49999987	    -35.26511218	      7.12901451	      0.25664147	     34.78106317	     -3.03309448	     62.07080797	     98.17944134	     85.65940330	     33.24837409	     -6.98475232	     63.26790748	    106.46781647	     87.94788820
      2.00000000	     23.36182380	     -6.21201767	      8.17040122	      1.62262629	      0.99690900	     -0.09280640	     -0.02059296	      2.59814808	      3.86747110	      7.40637236	      0.12926558	      5.56068998	      8.59323459	     -7.49999987	    -22.74758314	     -4.26375442	     -0.27925016	      9.33125164	      0.16286106	     28.85511376	      5.29371260	     -7.49999987	    -35.00302783	      7.21718897	      0.15567017	     34.40324472	     -3.09830968	     62.27986010	     98.31735545	     85.69492531	     33.04268265	     -7.03916227	     63.30550295	    106.48837374	     87.98006006
      2.01666670	     23.07717885	     -6.29736918	      8.30562705	      1.62696600	      0.99685037	     -0.09580260	     -0.34995430	      2.68321637	      4.17486727	      7.32679166	      0.12787664	      5.64924989	      8.03950692	     -7.49999987	    -22.61919443	     -4.27699500	      0.07174842	      9.09757656	      0.15878266	     28.70986531	      5.13279584	     -7.49999987	    -34.43431511	      7.38346754	     -0.02628649	     34.05876573	     -3.37818912	     62.77013701	     99.00473285	     84.51244298	     32.44379263	     -6.97773657	     63.07658687	    106.52080981	     86.69990918
      2.03333330	     22.76638499	     -6.34359232	      8.47235660	      1.62767178	      0.99593675	     -0.09644066	     -0.71493962	      2.71292571	      4.42377378	      7.09911469	      0.12390293	      5.81879473	      7.77495336	     -7.49999987	    -22.51345145	     -4.24705193	      0.49582057	      8.75871373	      0.15286839	     28.47966432	      4.96488100	     -7.49999987	    -33.84804677	      7.50860606	     -0.28470930	     33.73359492	     -3.48903017	     63.18729348	     99.33576123	     87.78541837	     31.91837141	     -6.90313432	     62.77185246	    106.56068565	     90.14161896
      2.05000000	     22.53949395	     -6.25677124	      8.61374569	      1.62818242	      0.99333492	     -0.09677515	     -1.16095748	      2.61554701	      4.65611196	      6.78521011	      0.11842426	      6.00279521	      7.63511222	     -7.49999987	    -22.44478019	     -4.10456723	      0.80585470	      8.50380960	      0.14841948	     28.43080292	      5.07066710	     -7.49999987	    -33.39820064	      7.44354442	     -0.39298065	     33.54129664	     -3.54555218	     63.33374279	     99.58751838	     87.79922339	     31.77528820	     -6.78608840	     62.87560931	    106.70299058	     90.15893962
      2.06666670	     22.30194167	     -6.09272422	      8.72476798	      1.62869643	      0.99287700	     -0.09715058	     -1.46616977	      2.40997061	      4.97982644	      6.59731681	      0.11514490	      6.15380949	      7.31378636	     -7.49999987	    -22.14210144	     -3.86066324	      1.28116619	      8.58587925	      0.14985186	     28.43603803	      4.91653531	     -7.49999987	    -33.12437660	      7.25792676	     -0.43742230	     33.42819917	     -3.67446929	     63.51950735	    100.12009254	     85.38778492	     31.76201276	     -6.66332274	     63.17077182	    106.84542371	     87.63819584
      2.08333330	     22.14928238	     -6.01982770	      8.78382459	      1.62914660	      0.99067373	     -0.09677983	     -1.79037671	      2.35547639	      5.26147928	      6.47739893	      0.11305194	      6.46870579	      7.10150895	     -7.49999987	    -21.85411309	     -3.71331661	      1.52155932	      8.86262939	      0.15468206	     28.69853524	      4.82867567	     -7.49999987	    -32.84459948	      7.14715916	     -0.44897894	     33.26648944	     -3.83770509	     63.66462324	    100.41431331	     83.71306868	     31.75340534	     -6.46634172	     63.31237870	    106.75473298	     85.82680631
      2.10000000	     21.82603502	     -5.94910363	      8.75834530	      1.63001078	      0.99457068	     -0.09682968	     -2.01585408	      2.29426266	      5.45515931	      6.18212307	      0.10789840	      6.57922182	      7.11260811	     -7.49999987	    -21.56982340	     -3.52790981	      1.72320853	      8.85206574	      0.15449769	     28.54093768	      4.48507483	     -7.49999987	    -32.35926955	      6.96251334	     -0.45393133	     32.73875560	     -3.90921550	     63.65813031	    100.04260281	     80.98279376	     31.38351578	     -6.42783149	     63.47264859	    106.36747027	     82.85191875
      2.11666670	     21.59691399	     -5.75767854	      8.86707860	      1.63051029	      0.99408648	     -0.09677172	     -2.35802892	      2.11658028	      5.45172139	      5.94615398	      0.10377996	      6.64593401	      7.10031167	     -7.49999987	    -21.36629294	     -3.29145591	      2.01444405	      8.87772087	      0.15494546	     28.66224547	      4.72057104	     -7.49999987	    -32.18760938	      6.73619340	     -0.39832911	     32.53483342	     -4.18492874	     63.36914202	    100.33277143	     88.31841230	     31.41515966	     -6.25390770	     63.54902287	    106.25378397	     89.65958269
